<svg xmlns="http://www.w3.org/2000/svg" width="900" height="520" viewBox="0 0 900 520"><rect width="100%" height="100%" fill="white"/><style>text{font-family:Arial,sans-serif;fill:#172033}.title{font-size:22px;font-weight:700}.axis{font-size:13px}.legend{font-size:12px}</style><text x="450.0" y="32" text-anchor="middle" class="title">Single-Pod CPU Throttling Boundary</text><line x1="90" y1="445.0" x2="870" y2="445.0" stroke="#e5e7eb"/><text x="80" y="449.0" text-anchor="end" class="axis">0.0</text><line x1="90" y1="369.0" x2="870" y2="369.0" stroke="#e5e7eb"/><text x="80" y="373.0" text-anchor="end" class="axis">21.8</text><line x1="90" y1="292.99999999999994" x2="870" y2="292.99999999999994" stroke="#e5e7eb"/><text x="80" y="296.99999999999994" text-anchor="end" class="axis">43.7</text><line x1="90" y1="217.0" x2="870" y2="217.0" stroke="#e5e7eb"/><text x="80" y="221.0" text-anchor="end" class="axis">65.5</text><line x1="90" y1="141.0" x2="870" y2="141.0" stroke="#e5e7eb"/><text x="80" y="145.0" text-anchor="end" class="axis">87.3</text><line x1="90" y1="64.99999999999996" x2="870" y2="64.99999999999996" stroke="#e5e7eb"/><text x="80" y="68.99999999999996" text-anchor="end" class="axis">109.1</text><line x1="90.0" y1="65" x2="90.0" y2="445" stroke="#f1f5f9"/><text x="90.0" y="467" text-anchor="middle" class="axis">45</text><line x1="220.0" y1="65" x2="220.0" y2="445" stroke="#f1f5f9"/><text x="220.0" y="467" text-anchor="middle" class="axis">50</text><line x1="350.0" y1="65" x2="350.0" y2="445" stroke="#f1f5f9"/><text x="350.0" y="467" text-anchor="middle" class="axis">55</text><line x1="480.0" y1="65" x2="480.0" y2="445" stroke="#f1f5f9"/><text x="480.0" y="467" text-anchor="middle" class="axis">60</text><line x1="610.0" y1="65" x2="610.0" y2="445" stroke="#f1f5f9"/><text x="610.0" y="467" text-anchor="middle" class="axis">65</text><line x1="740.0" y1="65" x2="740.0" y2="445" stroke="#f1f5f9"/><text x="740.0" y="467" text-anchor="middle" class="axis">70</text><line x1="870.0" y1="65" x2="870.0" y2="445" stroke="#f1f5f9"/><text x="870.0" y="467" text-anchor="middle" class="axis">75</text><line x1="90" y1="65" x2="90" y2="445" stroke="#111827"/><line x1="90" y1="445" x2="870" y2="445" stroke="#111827"/><line x1="90" y1="410.18253400143163" x2="870" y2="410.18253400143163" stroke="#b91c1c" stroke-dasharray="7 5"/><text x="865" y="403.18253400143163" text-anchor="end" class="legend">Guardrail = 10%</text><polyline points="90.0,422.6 220.0,406.6 350.0,408.7 480.0,419.5 610.0,402.2 740.0,115.2 870.0,99.5" fill="none" stroke="#7c3aed" stroke-width="3"/><circle cx="90.0" cy="422.6" r="4" fill="#7c3aed"/><circle cx="220.0" cy="406.6" r="4" fill="#7c3aed"/><circle cx="350.0" cy="408.7" r="4" fill="#7c3aed"/><circle cx="480.0" cy="419.5" r="4" fill="#7c3aed"/><circle cx="610.0" cy="402.2" r="4" fill="#7c3aed"/><circle cx="740.0" cy="115.2" r="4" fill="#7c3aed"/><circle cx="870.0" cy="99.5" r="4" fill="#7c3aed"/><line x1="90" y1="55" x2="114" y2="55" stroke="#7c3aed" stroke-width="3"/><text x="120" y="59" class="legend">Throttling</text><text x="450.0" y="500" text-anchor="middle" class="axis">Offered load (RPS)</text><text x="22" y="260.0" text-anchor="middle" transform="rotate(-90 22 260.0)" class="axis">Maximum throttled-period ratio (%)</text></svg>